<svg xmlns="http://www.w3.org/2000/svg" xmlns:xlink="http://www.w3.org/1999/xlink" width="141.088" height="45.581" viewBox="0 0 141.088 45.581">
  <defs>
    <clipPath id="clip-path">
      <rect id="Rectangle_145" data-name="Rectangle 145" width="141.088" height="45.581" fill="#0c113d"/>
    </clipPath>
  </defs>
  <g id="Group_1157" data-name="Group 1157" transform="translate(0 0)">
    <path id="Path_3695" data-name="Path 3695" d="M157.006,3.7l20.143.017v7.115l-13.045.028v4.291l13.045-.028v7.115l-13.045.028v4.348h13.045v7.03h-20.16Z" transform="translate(-127.467 -3.7)" fill="#0c113d" fill-rule="evenodd"/>
    <g id="Group_1155" data-name="Group 1155">
      <g id="Group_1154" data-name="Group 1154" clip-path="url(#clip-path)">
        <path id="Path_3696" data-name="Path 3696" d="M510.834,24.257l.029-.028.171-.219.2-.276.171-.249.171-.247.342-.551.171-.247.142-.276.143-.276.142-.274.142-.3.143-.274.114-.3.114-.276.114-.3.112-.3.086-.3.114-.3.085-.3.086-.3.057-.3.085-.329.057-.3.057-.329.029-.3.057-.331.028-.329.029-.331v-.331l.028-.331v-.331l-.028-.77-.057-.77-.114-.745-.114-.742-.171-.743-.228-.717-.228-.688-.285-.688-.312-.662-.342-.66-.4-.633-.4-.606-.428-.578-.454-.578-.513-.551-.511-.523-.542-.5-.568-.468L507.789,3l-.625-.413-.627-.386-.654-.357-.684-.359-.682-.3-.711-.247-.711-.249-.741-.192-.768-.165-.768-.137-.768-.11-.8-.055-.8-.027-.8.027-.8.055-.8.11L495.3.329l-.741.165-.741.192-.71.249-.711.247-.711.3-.654.359-.656.357-.625.386L489.118,3l-.6.468-.57.468-.54.5-.513.523-.484.551-.454.578-.427.578-.428.606-.37.633-.342.66-.313.662-.285.688-.228.688-.228.717-.171.743-.142.742-.086.745-.055.77-.029.77.029.772.055.77.086.772.142.743.171.715.228.717.228.717.285.688.313.66.342.633.37.633.428.633.427.578.454.578.484.551.513.523.54.5.57.468.6.441.627.441.625.384.656.359.654.329.711.3.682.274.739.249.741.192.741.165.768.137.8.084.8.082h1.565l.228-.027h.256l.257-.027.256-.028.228-.028.256-.027.228-.055.256-.028.228-.053.256-.028.228-.055.257-.055.226-.055.228-.055.228-.082.228-.055.256-.084.228-.082.228-.055.2-.084.226-.082.228-.11.228-.082.228-.084.2-.11.228-.082.2-.11.228-.11.029-.028,1.594,1.268,10.389-.028ZM500.1,23.513h-.114l-.114.027-.114.028h-.114l-.112.027h-.114l-.143.028h-.228l-.114.027H498l-.454-.055-.427-.055-.456-.055-.427-.11-.428-.108-.4-.139-.4-.137-.4-.194-.37-.164-.371-.221-.37-.221-.342-.249-.34-.247-.313-.276-.314-.276-.285-.3-.283-.3-.257-.331-.256-.331-.228-.357-.2-.357-.2-.357-.171-.386-.171-.386L490,17.648l-.114-.413-.085-.413-.086-.413-.057-.441-.028-.441-.029-.441.029-.439.028-.414.057-.439.086-.413.085-.414.114-.413.142-.413.171-.386.171-.357.2-.386.2-.357.228-.331.256-.357.257-.3.283-.331.285-.276.314-.3.313-.249.34-.274.342-.221.37-.221.371-.221.37-.194.4-.164.4-.165.4-.11.428-.137.427-.084.456-.082.427-.055L498,6.552h.912l.456.028.427.055.456.082.427.084.4.137.428.11.4.165.4.164.37.194.371.221.37.221.342.221.34.274.314.249.6.578.285.331.255.3.256.357.228.331.2.357.2.386.171.357.169.386.143.413.114.413.086.414.085.413.057.439.028.414.029.439v.194l-.029.192v.192l-.028.165v.194l-.029.192-.028.165-.028.194-.029.164-.057.194-.028.165-.059.192-.028.165-.057.165-.057.165-.057.192-.055.165-.086.165-.057.165-.085.165-.059.137-.169.331-.086.137-.085.165-.086.137-.112.139-.086.137-.086.139-.114.137-.114.137-.085.139-.114.11-.114.137-.142.139-.114.11-.114.137-.143.11-.142.137-.142.11-.143.11-.142.139-.171.108-.142.112-.173.108-.142.11-.171.11-.34.221-.171.084-.171.108-.171.084-.171.082-.171.11-.171.055-.2.084-.171.082-.171.055-.2.084-.171.055-.171.053-.2.055-.171.055-.171.028-.114.027Zm5.48,4.524-5.3-4.094,9.531.018.456.327a23.111,23.111,0,0,1-4.688,3.749m-23.753-20.6V.494L461.527.478l-.017,29.2h20.322V22.825h-13.15v-4.24l13.15-.028V11.619l-13.15.027V7.461Z" transform="translate(-376.664)" fill="#0c113d" fill-rule="evenodd"/>
        <path id="Path_3697" data-name="Path 3697" d="M27.637,23.065l-.029.441-.028.441-.057.439-.085.441-.086.441-.142.413-.143.413-.171.413-.171.386-.2.386-.228.386-.228.357-.256.357-.57.662-.283.3-.314.3-.342.276-.34.276-.371.247-.37.247-.4.194-.4.221-.4.165-.427.165-.428.137-.454.137-.427.11-.485.055-.454.084-.484.027H2.392v-.012H.112V25.021h2.28v0H18.614l.2-.027.2-.055.171-.084.2-.082.171-.11.143-.11.142-.137.142-.139.114-.137.114-.165.086-.165.055-.165.059-.192.028-.165v-.441l-.028-.221L20.35,22.4l-.055-.221-.086-.194-.114-.192-.114-.165-.142-.165L19.7,21.33l-.171-.11-.171-.11-.4-.165-.2-.055-.228-.027H9.422l-.485-.028-.454-.055L8,20.7l-.454-.084L7.06,20.5l-.428-.137-.454-.137-.428-.165-.427-.194L4.9,19.652l-.4-.221-.4-.249-.371-.247-.37-.276-.342-.3-.342-.3-.625-.662-.285-.357-.256-.386-.256-.386-.228-.413-.2-.413L.654,15l-.171-.441-.142-.468-.114-.468-.085-.5L.057,12.63l-.028-.525L0,11.583l.029-.494.028-.5.057-.468.114-.47.086-.439.142-.441L.6,8.335l.2-.414L1,7.535l.2-.384.228-.359.257-.357.283-.357.285-.331.313-.3.314-.3.313-.276.37-.249L3.9,4.369l.371-.221.4-.221.4-.192.4-.192.4-.165.427-.139.454-.108.428-.11.454-.084.428-.082.454-.028.484-.055h1.329v0H27.4V9.738H9.279l-.2.028-.228.027-.2.055-.2.082-.2.084-.171.082-.171.11-.142.139-.143.137-.228.331L7.315,11l-.057.194-.057.219v.525l.057.247.114.441.114.192.114.165.114.165.171.165.142.11.171.137.2.082.2.084.2.055.2.055.228.027H9.45l8.994.028h.541l.542.055.511.055.485.082.484.11.484.139.456.137.427.165.427.192.4.221.4.221.371.247.34.249.342.3.314.276.313.329.285.3.256.357.256.331.228.357.2.386.2.384.171.386.171.413.114.414.142.413.086.413.085.441.085.439.029.441.028.441Z" transform="translate(0 -2.278)" fill="#0c113d"/>
        <path id="Path_3698" data-name="Path 3698" d="M280.834,32.942H273.7l8.129-29.35h7.134Z" transform="translate(-223.382 -2.953)" fill="#0c113d" fill-rule="evenodd"/>
        <path id="Path_3699" data-name="Path 3699" d="M330.834,32.609H323.7l8.129-29.35h7.134Z" transform="translate(-264.189 -2.679)" fill="#0c113d" fill-rule="evenodd"/>
        <path id="Path_3700" data-name="Path 3700" d="M379.5,32.609h-7.134L380.5,3.259h7.134Z" transform="translate(-303.909 -2.679)" fill="#0c113d" fill-rule="evenodd"/>
        <path id="Path_3701" data-name="Path 3701" d="M7.909,205.68H4.983v-.831h.97v-6.476h-.97v-.831H7.909v.831h-.97v6.476h.97Z" transform="translate(-4.067 -162.41)" fill="#0c113d"/>
        <path id="Path_3702" data-name="Path 3702" d="M34.259,214.295h-.935v-3.476a6.534,6.534,0,0,0-.045-.789,1.546,1.546,0,0,0-.164-.577.785.785,0,0,0-.358-.342A1.417,1.417,0,0,0,32.15,209a1.8,1.8,0,0,0-.8.208,4.032,4.032,0,0,0-.8.53v4.558h-.936v-6.1h.936v.677a3.772,3.772,0,0,1,.905-.623,2.2,2.2,0,0,1,.96-.224,1.65,1.65,0,0,1,1.373.6,2.708,2.708,0,0,1,.473,1.716Z" transform="translate(-24.168 -171.025)" fill="#0c113d"/>
        <path id="Path_3703" data-name="Path 3703" d="M64.858,206.913a4.73,4.73,0,0,1-.575.126,3.579,3.579,0,0,1-.555.049,1.632,1.632,0,0,1-1.294-.5,2.407,2.407,0,0,1-.443-1.612v-3.246H61.36v-.863h.632v-1.754h.935v1.754h1.931v.863H62.927v2.782q0,.481.02.751a1.317,1.317,0,0,0,.139.506.7.7,0,0,0,.3.32,1.3,1.3,0,0,0,.585.1,1.684,1.684,0,0,0,.478-.074,3.155,3.155,0,0,0,.358-.123h.05Z" transform="translate(-50.079 -163.698)" fill="#0c113d"/>
        <path id="Path_3704" data-name="Path 3704" d="M89.436,211.349h-4.1a2.827,2.827,0,0,0,.154.981,1.858,1.858,0,0,0,.423.686,1.656,1.656,0,0,0,.615.394,2.251,2.251,0,0,0,.784.131,2.858,2.858,0,0,0,1.142-.249,2.75,2.75,0,0,0,.818-.489h.05v1.12a7.25,7.25,0,0,1-.965.366,3.59,3.59,0,0,1-1.035.147,2.826,2.826,0,0,1-2.159-.822,3.274,3.274,0,0,1-.776-2.336,3.563,3.563,0,0,1,.744-2.377,2.439,2.439,0,0,1,1.958-.88,2.144,2.144,0,0,1,1.734.722,3.087,3.087,0,0,1,.61,2.049Zm-.911-.787a1.933,1.933,0,0,0-.371-1.251,1.359,1.359,0,0,0-1.112-.443,1.544,1.544,0,0,0-1.2.486,1.975,1.975,0,0,0-.505,1.208Z" transform="translate(-68.876 -171.025)" fill="#0c113d"/>
        <rect id="Rectangle_142" data-name="Rectangle 142" width="0.935" height="8.503" transform="translate(21.988 34.766)" fill="#0c113d"/>
        <rect id="Rectangle_143" data-name="Rectangle 143" width="0.935" height="8.503" transform="translate(24.785 34.766)" fill="#0c113d"/>
        <path id="Path_3705" data-name="Path 3705" d="M150.753,198.3H149.7v-1.066h1.055Zm-.06,7.126h-.935v-6.1h.935Z" transform="translate(-122.177 -162.158)" fill="#0c113d"/>
        <path id="Path_3706" data-name="Path 3706" d="M167.986,213.6a3.383,3.383,0,0,1-.642,2.279,2.5,2.5,0,0,1-1.975.727,5.377,5.377,0,0,1-.863-.068,6.143,6.143,0,0,1-.828-.194v-1.049h.05a6.884,6.884,0,0,0,.726.243,3.545,3.545,0,0,0,1,.145,2.138,2.138,0,0,0,.791-.126,1.134,1.134,0,0,0,.488-.35,1.292,1.292,0,0,0,.249-.514,2.79,2.79,0,0,0,.075-.672v-.557a3.584,3.584,0,0,1-.809.555,2.3,2.3,0,0,1-.983.183,1.863,1.863,0,0,1-1.58-.79,3.684,3.684,0,0,1-.585-2.227,4.091,4.091,0,0,1,.2-1.358,3.149,3.149,0,0,1,.55-.986,2.247,2.247,0,0,1,.786-.6,2.162,2.162,0,0,1,.921-.216,2.628,2.628,0,0,1,.808.107,3.4,3.4,0,0,1,.689.325l.06-.262h.876Zm-.935-.984v-3.328a3.416,3.416,0,0,0-.694-.265,2.661,2.661,0,0,0-.639-.079,1.455,1.455,0,0,0-1.214.568,2.643,2.643,0,0,0-.443,1.65,2.99,2.99,0,0,0,.329,1.557,1.181,1.181,0,0,0,1.09.53,2.1,2.1,0,0,0,.818-.172,2.909,2.909,0,0,0,.754-.462" transform="translate(-133.111 -171.024)" fill="#0c113d"/>
        <path id="Path_3707" data-name="Path 3707" d="M202.621,211.349h-4.1a2.826,2.826,0,0,0,.154.981,1.858,1.858,0,0,0,.423.686,1.656,1.656,0,0,0,.615.394,2.251,2.251,0,0,0,.784.131,2.858,2.858,0,0,0,1.142-.249,2.75,2.75,0,0,0,.818-.489h.05v1.12a7.248,7.248,0,0,1-.965.366,3.59,3.59,0,0,1-1.035.147,2.826,2.826,0,0,1-2.159-.822,3.274,3.274,0,0,1-.776-2.336,3.563,3.563,0,0,1,.744-2.377,2.439,2.439,0,0,1,1.958-.88,2.144,2.144,0,0,1,1.734.722,3.087,3.087,0,0,1,.61,2.049Zm-.911-.787a1.933,1.933,0,0,0-.371-1.251,1.359,1.359,0,0,0-1.112-.443,1.544,1.544,0,0,0-1.2.486,1.975,1.975,0,0,0-.505,1.208Z" transform="translate(-161.253 -171.025)" fill="#0c113d"/>
        <path id="Path_3708" data-name="Path 3708" d="M237.38,214.295h-.935v-3.476a6.537,6.537,0,0,0-.045-.789,1.545,1.545,0,0,0-.164-.577.785.785,0,0,0-.358-.342,1.417,1.417,0,0,0-.607-.112,1.8,1.8,0,0,0-.8.208,4.032,4.032,0,0,0-.8.53v4.558h-.936v-6.1h.936v.677a3.772,3.772,0,0,1,.905-.623,2.2,2.2,0,0,1,.96-.224,1.65,1.65,0,0,1,1.373.6,2.708,2.708,0,0,1,.473,1.716Z" transform="translate(-189.946 -171.025)" fill="#0c113d"/>
        <path id="Path_3709" data-name="Path 3709" d="M270.152,214.039a5.7,5.7,0,0,1-.888.383,2.873,2.873,0,0,1-.893.137,3.042,3.042,0,0,1-1.1-.194,2.234,2.234,0,0,1-.861-.588,2.684,2.684,0,0,1-.562-.995,4.473,4.473,0,0,1-.2-1.4,3.439,3.439,0,0,1,.749-2.35,2.5,2.5,0,0,1,1.978-.852,3.061,3.061,0,0,1,.938.147,4.647,4.647,0,0,1,.843.361v1.142h-.05a3.494,3.494,0,0,0-.883-.563,2.23,2.23,0,0,0-.888-.2,1.51,1.51,0,0,0-1.256.588,3.44,3.44,0,0,0-.01,3.421,1.5,1.5,0,0,0,1.266.593,2.134,2.134,0,0,0,.577-.082,2.4,2.4,0,0,0,.527-.213,4.223,4.223,0,0,0,.383-.243,3.587,3.587,0,0,0,.284-.221h.05Z" transform="translate(-216.807 -171.152)" fill="#0c113d"/>
        <path id="Path_3710" data-name="Path 3710" d="M299.594,211.349h-4.1a2.826,2.826,0,0,0,.154.981,1.858,1.858,0,0,0,.423.686,1.656,1.656,0,0,0,.615.394,2.251,2.251,0,0,0,.784.131,2.858,2.858,0,0,0,1.142-.249,2.75,2.75,0,0,0,.818-.489h.05v1.12a7.248,7.248,0,0,1-.965.366,3.589,3.589,0,0,1-1.035.147,2.826,2.826,0,0,1-2.159-.822,3.274,3.274,0,0,1-.776-2.336,3.563,3.563,0,0,1,.744-2.377,2.439,2.439,0,0,1,1.958-.88,2.144,2.144,0,0,1,1.734.722,3.087,3.087,0,0,1,.61,2.049Zm-.911-.787a1.933,1.933,0,0,0-.371-1.251,1.359,1.359,0,0,0-1.112-.443,1.544,1.544,0,0,0-1.2.486,1.975,1.975,0,0,0-.505,1.208Z" transform="translate(-240.398 -171.025)" fill="#0c113d"/>
        <path id="Path_3711" data-name="Path 3711" d="M349.977,198.3h-1.055v-1.066h1.055Zm-.06,7.126h-.935v-6.1h.935Z" transform="translate(-284.774 -162.158)" fill="#0c113d"/>
        <path id="Path_3712" data-name="Path 3712" d="M369.051,214.295h-.935v-3.476a6.573,6.573,0,0,0-.045-.789,1.546,1.546,0,0,0-.164-.577.784.784,0,0,0-.358-.342,1.417,1.417,0,0,0-.607-.112,1.8,1.8,0,0,0-.8.208,4.037,4.037,0,0,0-.8.53v4.558H364.4v-6.1h.935v.677a3.773,3.773,0,0,1,.906-.623,2.2,2.2,0,0,1,.96-.224,1.65,1.65,0,0,1,1.373.6,2.708,2.708,0,0,1,.472,1.716Z" transform="translate(-297.41 -171.025)" fill="#0c113d"/>
        <path id="Path_3713" data-name="Path 3713" d="M421.37,205.68h-1.05l-.727-2.268h-3.2l-.726,2.268h-1l2.7-8.137h1.314Zm-2.08-3.2-1.3-3.995-1.3,3.995Z" transform="translate(-338.429 -162.41)" fill="#0c113d"/>
        <path id="Path_3714" data-name="Path 3714" d="M459.171,212.635a1.721,1.721,0,0,1-.63,1.372,2.567,2.567,0,0,1-1.719.536,3.772,3.772,0,0,1-1.132-.161,4.753,4.753,0,0,1-.863-.352v-1.153h.05a3.661,3.661,0,0,0,.985.582,2.806,2.806,0,0,0,1.04.216,1.81,1.81,0,0,0,.965-.219.754.754,0,0,0,.348-.689.733.733,0,0,0-.189-.546,1.625,1.625,0,0,0-.726-.317q-.2-.049-.52-.115t-.585-.142a1.905,1.905,0,0,1-1.037-.626,1.653,1.653,0,0,1-.306-1.014,1.8,1.8,0,0,1,.142-.71,1.7,1.7,0,0,1,.43-.6,2.01,2.01,0,0,1,.709-.407,2.907,2.907,0,0,1,.963-.15,3.953,3.953,0,0,1,1.007.134,3.586,3.586,0,0,1,.849.325v1.1h-.05a3.254,3.254,0,0,0-.871-.489,2.764,2.764,0,0,0-1.005-.2,1.63,1.63,0,0,0-.866.216.7.7,0,0,0-.353.642.723.723,0,0,0,.214.568,1.6,1.6,0,0,0,.677.312q.259.066.58.131t.535.12a1.93,1.93,0,0,1,1.005.563,1.57,1.57,0,0,1,.353,1.071" transform="translate(-371.209 -171.125)" fill="#0c113d"/>
        <path id="Path_3715" data-name="Path 3715" d="M488.05,212.635a1.72,1.72,0,0,1-.63,1.372,2.567,2.567,0,0,1-1.719.536,3.772,3.772,0,0,1-1.132-.161,4.752,4.752,0,0,1-.863-.352v-1.153h.05a3.66,3.66,0,0,0,.985.582,2.806,2.806,0,0,0,1.04.216,1.81,1.81,0,0,0,.965-.219.754.754,0,0,0,.348-.689.733.733,0,0,0-.189-.546,1.625,1.625,0,0,0-.726-.317q-.2-.049-.52-.115t-.585-.142a1.905,1.905,0,0,1-1.037-.626,1.653,1.653,0,0,1-.306-1.014,1.8,1.8,0,0,1,.142-.71,1.7,1.7,0,0,1,.43-.6,2.01,2.01,0,0,1,.709-.407,2.907,2.907,0,0,1,.963-.15,3.953,3.953,0,0,1,1.007.134,3.586,3.586,0,0,1,.849.325v1.1h-.05a3.254,3.254,0,0,0-.871-.489,2.764,2.764,0,0,0-1.005-.2,1.63,1.63,0,0,0-.866.216.7.7,0,0,0-.353.642.723.723,0,0,0,.214.568,1.6,1.6,0,0,0,.677.312q.259.066.58.131t.535.12a1.93,1.93,0,0,1,1.005.563,1.571,1.571,0,0,1,.353,1.071" transform="translate(-394.779 -171.125)" fill="#0c113d"/>
        <path id="Path_3716" data-name="Path 3716" d="M517.521,211.349h-4.095a2.827,2.827,0,0,0,.154.981,1.858,1.858,0,0,0,.423.686,1.659,1.659,0,0,0,.615.394,2.253,2.253,0,0,0,.784.131,2.858,2.858,0,0,0,1.142-.249,2.753,2.753,0,0,0,.818-.489h.05v1.12a7.228,7.228,0,0,1-.965.366,3.588,3.588,0,0,1-1.035.147,2.826,2.826,0,0,1-2.16-.822,3.274,3.274,0,0,1-.776-2.336,3.562,3.562,0,0,1,.744-2.377,2.438,2.438,0,0,1,1.958-.88,2.144,2.144,0,0,1,1.734.722,3.087,3.087,0,0,1,.609,2.049Zm-.911-.787a1.932,1.932,0,0,0-.371-1.251,1.359,1.359,0,0,0-1.112-.443,1.543,1.543,0,0,0-1.2.486,1.974,1.974,0,0,0-.505,1.208Z" transform="translate(-418.26 -171.025)" fill="#0c113d"/>
        <path id="Path_3717" data-name="Path 3717" d="M547.8,206.913a4.714,4.714,0,0,1-.575.126,3.577,3.577,0,0,1-.555.049,1.632,1.632,0,0,1-1.294-.5,2.407,2.407,0,0,1-.443-1.612v-3.246H544.3v-.863h.632v-1.754h.935v1.754H547.8v.863H545.87v2.782q0,.481.02.751a1.323,1.323,0,0,0,.139.506.7.7,0,0,0,.3.32,1.3,1.3,0,0,0,.585.1,1.682,1.682,0,0,0,.478-.074,3.129,3.129,0,0,0,.358-.123h.05Z" transform="translate(-444.236 -163.698)" fill="#0c113d"/>
        <path id="Path_3718" data-name="Path 3718" d="M595.034,205.68h-.985V201.7h-3.7v3.984h-.985v-8.137h.985v3.191h3.7v-3.191h.985Z" transform="translate(-481.015 -162.41)" fill="#0c113d"/>
        <path id="Path_3719" data-name="Path 3719" d="M633.52,211.349h-4.095a2.828,2.828,0,0,0,.154.981,1.859,1.859,0,0,0,.423.686,1.659,1.659,0,0,0,.615.394,2.253,2.253,0,0,0,.784.131,2.858,2.858,0,0,0,1.142-.249,2.753,2.753,0,0,0,.818-.489h.05v1.12a7.228,7.228,0,0,1-.965.366,3.588,3.588,0,0,1-1.035.147,2.826,2.826,0,0,1-2.16-.822,3.274,3.274,0,0,1-.776-2.336,3.562,3.562,0,0,1,.744-2.377,2.438,2.438,0,0,1,1.958-.88,2.144,2.144,0,0,1,1.734.722,3.087,3.087,0,0,1,.609,2.049Zm-.911-.787a1.932,1.932,0,0,0-.371-1.251,1.359,1.359,0,0,0-1.112-.443,1.543,1.543,0,0,0-1.2.486,1.974,1.974,0,0,0-.505,1.208Z" transform="translate(-512.933 -171.025)" fill="#0c113d"/>
        <path id="Path_3720" data-name="Path 3720" d="M666.162,214.4h-.93v-.65q-.124.093-.336.259a2.356,2.356,0,0,1-.411.265,2.626,2.626,0,0,1-.537.211,2.667,2.667,0,0,1-.712.084,1.7,1.7,0,0,1-1.274-.546,1.934,1.934,0,0,1-.522-1.394,2.073,2.073,0,0,1,.271-1.123,1.851,1.851,0,0,1,.774-.675,3.875,3.875,0,0,1,1.219-.333q.712-.087,1.528-.131V210.2a1.32,1.32,0,0,0-.112-.579.866.866,0,0,0-.321-.361,1.248,1.248,0,0,0-.478-.169,3.733,3.733,0,0,0-.582-.044,3.622,3.622,0,0,0-.821.107,5.968,5.968,0,0,0-.935.309h-.05v-1.044q.274-.082.791-.18a5.449,5.449,0,0,1,1.02-.1,4.34,4.34,0,0,1,1.023.107,1.906,1.906,0,0,1,.754.363,1.6,1.6,0,0,1,.478.65,2.61,2.61,0,0,1,.164.989Zm-.93-1.5v-1.7q-.428.027-1.008.082a4.791,4.791,0,0,0-.918.159,1.477,1.477,0,0,0-.652.391,1.21,1.21,0,0,0,.04,1.519,1.267,1.267,0,0,0,.881.265,1.938,1.938,0,0,0,.9-.21,4.021,4.021,0,0,0,.756-.506" transform="translate(-539.838 -171.126)" fill="#0c113d"/>
        <rect id="Rectangle_144" data-name="Rectangle 144" width="0.935" height="8.503" transform="translate(128.136 34.766)" fill="#0c113d"/>
        <path id="Path_3721" data-name="Path 3721" d="M712.3,206.913a4.714,4.714,0,0,1-.575.126,3.577,3.577,0,0,1-.555.049,1.631,1.631,0,0,1-1.294-.5,2.407,2.407,0,0,1-.443-1.612v-3.246H708.8v-.863h.632v-1.754h.935v1.754H712.3v.863H710.37v2.782q0,.481.02.751a1.324,1.324,0,0,0,.139.506.7.7,0,0,0,.3.32,1.3,1.3,0,0,0,.585.1,1.682,1.682,0,0,0,.478-.074,3.129,3.129,0,0,0,.358-.123h.05Z" transform="translate(-578.493 -163.698)" fill="#0c113d"/>
        <path id="Path_3722" data-name="Path 3722" d="M738.621,203.986h-.935v-3.476a6.573,6.573,0,0,0-.045-.789,1.546,1.546,0,0,0-.164-.577.784.784,0,0,0-.358-.342,1.417,1.417,0,0,0-.607-.112,1.8,1.8,0,0,0-.8.208,4.031,4.031,0,0,0-.8.53v4.558h-.935v-8.5h.935v3.077a3.775,3.775,0,0,1,.905-.623,2.2,2.2,0,0,1,.96-.224,1.65,1.65,0,0,1,1.373.6,2.708,2.708,0,0,1,.472,1.716Z" transform="translate(-599.037 -160.717)" fill="#0c113d"/>
      </g>
    </g>
  </g>
</svg>
